<svg width="12" height="12" viewBox="0 0 12 12" fill="none" xmlns="http://www.w3.org/2000/svg">
<path d="M8 5C8 3.895 7.105 3 6 3C4.895 3 4 3.895 4 5C4 6.105 4.895 7 6 7C7.105 7 8 6.105 8 5ZM5 5C5 4.45 5.45 4 6 4C6.55 4 7 4.45 7 5C7 5.55 6.55 6 6 6C5.45 6 5 5.55 5 5Z" fill="#79867D"/>
<path d="M5.70999 10.9051C5.79499 10.9651 5.89999 11.0001 5.99999 11.0001C6.09999 11.0001 6.20499 10.9701 6.28999 10.9051C6.43999 10.7951 10.015 8.22012 9.99999 4.99512C9.99999 2.79012 8.20499 0.995117 5.99999 0.995117C3.79499 0.995117 1.99999 2.79012 1.99999 4.99512C1.98499 8.21512 5.55999 10.7951 5.70999 10.9051ZM5.99999 2.00012C7.65499 2.00012 8.99999 3.34512 8.99999 5.00012C9.00999 7.22012 6.80499 9.21512 5.99999 9.87012C5.19499 9.21512 2.98999 7.22512 2.99999 5.00012C2.99999 3.34512 4.34499 2.00012 5.99999 2.00012Z" fill="#79867D"/>
</svg>
