<svg width="20" height="20" viewBox="0 0 20 20" fill="none" xmlns="http://www.w3.org/2000/svg">
<path d="M16.6667 10.8333C16.6667 15 13.75 17.0833 10.2834 18.2916C10.1018 18.3532 9.90466 18.3502 9.72504 18.2833C6.25004 17.0833 3.33337 15 3.33337 10.8333V4.99997C3.33337 4.77895 3.42117 4.56699 3.57745 4.41071C3.73373 4.25443 3.94569 4.16663 4.16671 4.16663C5.83337 4.16663 7.91671 3.16663 9.36671 1.89997C9.54325 1.74913 9.76784 1.66626 10 1.66626C10.2322 1.66626 10.4568 1.74913 10.6334 1.89997C12.0917 3.17497 14.1667 4.16663 15.8334 4.16663C16.0544 4.16663 16.2663 4.25443 16.4226 4.41071C16.5789 4.56699 16.6667 4.77895 16.6667 4.99997V10.8333Z" stroke="#79867D" stroke-width="2" stroke-linecap="round" stroke-linejoin="round"/>
</svg>
