<svg width="20" height="20" viewBox="0 0 20 20" fill="none" xmlns="http://www.w3.org/2000/svg">
<path d="M17.5 15.8334V10.2226C17.5 9.77043 17.408 9.32303 17.2297 8.90757C17.0513 8.49211 16.7903 8.11728 16.4625 7.80588L11.1483 2.75838C10.8386 2.46412 10.4277 2.30005 10.0004 2.30005C9.57318 2.30005 9.16225 2.46412 8.8525 2.75838L3.5375 7.80588C3.20971 8.11728 2.9487 8.49211 2.77034 8.90757C2.59198 9.32303 2.5 9.77043 2.5 10.2226V15.8334C2.5 16.2754 2.67559 16.6993 2.98816 17.0119C3.30072 17.3245 3.72464 17.5001 4.16667 17.5001H15.8333C16.2754 17.5001 16.6993 17.3245 17.0118 17.0119C17.3244 16.6993 17.5 16.2754 17.5 15.8334Z" stroke="#222A25" stroke-width="2" stroke-linecap="round" stroke-linejoin="round"/>
<path d="M7.5 12.5002C7.5 12.0581 7.6756 11.6342 7.98816 11.3217C8.30072 11.0091 8.72464 10.8335 9.16667 10.8335H10.8333C11.2754 10.8335 11.6993 11.0091 12.0118 11.3217C12.3244 11.6342 12.5 12.0581 12.5 12.5002V17.5002H7.5V12.5002Z" stroke="#222A25" stroke-width="2" stroke-linecap="round" stroke-linejoin="round"/>
</svg>
