<svg width="20" height="20" viewBox="0 0 20 20" fill="none" xmlns="http://www.w3.org/2000/svg">
<path d="M7.70833 3.95825V13.7916M12.2917 6.20825V16.0416M7.08 3.69908L3.53917 5.75825C3.4132 5.83156 3.30866 5.93663 3.23598 6.06297C3.16331 6.18931 3.12504 6.3325 3.125 6.47825V15.2166C3.1249 15.3632 3.16345 15.5072 3.23678 15.6341C3.31011 15.761 3.41562 15.8663 3.54266 15.9394C3.6697 16.0126 3.81378 16.0509 3.96035 16.0505C4.10693 16.0502 4.25082 16.0111 4.3775 15.9374L7.08 14.3649C7.27082 14.254 7.48761 14.1955 7.70833 14.1955C7.92906 14.1955 8.14585 14.254 8.33667 14.3649L11.6633 16.2999C11.8541 16.4109 12.0709 16.4693 12.2917 16.4693C12.5124 16.4693 12.7292 16.4109 12.92 16.2999L16.4608 14.2399C16.5868 14.1666 16.6913 14.0615 16.764 13.9352C16.8367 13.8089 16.875 13.6657 16.875 13.5199V4.78242C16.8751 4.63584 16.8365 4.49183 16.7632 4.36492C16.6899 4.238 16.5844 4.13267 16.4573 4.05956C16.3303 3.98645 16.1862 3.94814 16.0396 3.94849C15.8931 3.94885 15.7492 3.98786 15.6225 4.06158L12.92 5.63408C12.7292 5.74504 12.5124 5.80348 12.2917 5.80348C12.0709 5.80348 11.8541 5.74504 11.6633 5.63408L8.33667 3.69992C8.14585 3.58896 7.92906 3.53052 7.70833 3.53052C7.48761 3.53052 7.27082 3.58813 7.08 3.69908Z" stroke="#79867D" stroke-width="1.5" stroke-linejoin="round"/>
</svg>
