<svg width="20" height="20" viewBox="0 0 20 20" fill="none" xmlns="http://www.w3.org/2000/svg">
<path d="M9.99963 3C10.7511 3 11.4722 3.29873 12.0035 3.83008C12.5347 4.36134 12.8335 5.08176 12.8336 5.83301C12.8336 6.58445 12.5349 7.30556 12.0035 7.83691C11.4722 8.36827 10.7511 8.66699 9.99963 8.66699C9.24838 8.66691 8.52796 8.36809 7.9967 7.83691C7.46535 7.30556 7.16663 6.58445 7.16663 5.83301C7.16671 5.08168 7.46543 4.36135 7.9967 3.83008C8.52798 3.2988 9.2483 3.00009 9.99963 3Z" stroke="#79867D"/>
<path d="M16.25 16.6667V15.8333C16.25 14.9493 15.8988 14.1014 15.2737 13.4763C14.6486 12.8512 13.8007 12.5 12.9167 12.5H7.08333C6.19928 12.5 5.35143 12.8512 4.72631 13.4763C4.10119 14.1014 3.75 14.9493 3.75 15.8333V16.6667M13.3333 5.83333C13.3333 6.71739 12.9821 7.56524 12.357 8.19036C11.7319 8.81548 10.8841 9.16667 10 9.16667C9.11594 9.16667 8.2681 8.81548 7.64298 8.19036C7.01786 7.56524 6.66667 6.71739 6.66667 5.83333C6.66667 4.94928 7.01786 4.10143 7.64298 3.47631C8.2681 2.85119 9.11594 2.5 10 2.5C10.8841 2.5 11.7319 2.85119 12.357 3.47631C12.9821 4.10143 13.3333 4.94928 13.3333 5.83333Z" stroke="#79867D" stroke-width="2" stroke-linecap="square"/>
</svg>
